<?xml version="1.0" encoding="utf-8"?>
<!-- Generator: Adobe Illustrator 27.0.0, SVG Export Plug-In . SVG Version: 6.00 Build 0)  -->
<svg version="1.1" id="Layer_1" xmlns="http://www.w3.org/2000/svg" xmlns:xlink="http://www.w3.org/1999/xlink" x="0px" y="0px"
	 viewBox="0 0 512 512" style="enable-background:new 0 0 512 512;" xml:space="preserve">
<style type="text/css">
	.st0{fill:#FF8243;}
</style>
<g>
	<g>
		<path class="st0" d="M235.1,392.7c-5.8,0-10.4,4.7-10.4,10.4v4.7c0,5.8,4.7,10.4,10.4,10.4c5.8,0,10.4-4.7,10.4-10.4v-4.7
			C245.5,397.4,240.9,392.7,235.1,392.7z"/>
	</g>
</g>
<g>
	<g>
		<path class="st0" d="M492.9,313.4l-31.4-25.9c1.6-10.4,2.4-21,2.4-31.5c0-10.5-0.8-21.1-2.4-31.5l31.4-25.9
			c10-8.3,12.6-22.4,6.1-33.7l-42.7-74c-4.7-8.2-13.5-13.2-22.9-13.2c-3.2,0-6.3,0.6-9.3,1.7L386,93.7
			c-16.5-13.3-34.8-23.9-54.5-31.5l-6.7-40.1C322.7,9.3,311.7,0,298.7,0h-85.4c-13,0-24,9.3-26.1,22.1l-6.7,40.1
			c-19.7,7.7-38,18.3-54.6,31.5L87.9,79.5c-3-1.1-6.1-1.7-9.3-1.7c-9.4,0-18.2,5.1-22.9,13.2L13,165c-6.5,11.2-3.9,25.4,6.1,33.7
			l31.4,25.9c-1.6,10.4-2.4,21-2.4,31.5c0,10.5,0.8,21.1,2.4,31.5l-31.4,25.9C9,321.6,6.5,335.8,13,347l42.7,74
			c4.7,8.2,13.5,13.2,22.9,13.2c3.2,0,6.4-0.6,9.3-1.7l38.1-14.3c16.5,13.3,34.9,23.9,54.6,31.5l6.7,40.1
			c2.1,12.8,13.1,22.1,26.1,22.1h85.4c13,0,24-9.3,26.1-22.1l6.7-40.1c19.7-7.7,38-18.3,54.6-31.5l38.1,14.3c3,1.1,6.1,1.7,9.3,1.7
			c9.4,0,18.2-5.1,22.9-13.2l42.7-74C505.5,335.8,503,321.6,492.9,313.4z M298.7,491.1h-53.2v-49.4c0-5.8-4.7-10.4-10.4-10.4
			c-5.8,0-10.4,4.7-10.4,10.4v49.4h-10.9V376.5c13.6,4.8,28.1,7.4,42.9,7.4c0,0,0.1,0,0.1,0c14.9,0,29.3-2.5,42.9-7.4V491h0
			C299.3,491.1,299,491.1,298.7,491.1z M256.6,363L256.6,363c-59,0-107-48-107-107c0-34.3,16.2-65.8,43.2-85.7v76.2
			c0,3.7,1.9,7.1,5.1,9l53.4,32c3.3,2,7.4,2,10.8,0l53.4-32c3.1-1.9,5.1-5.3,5.1-9v-76.2c27,19.9,43.2,51.4,43.2,85.7
			c0,28.5-11.1,55.4-31.4,75.6C312,351.8,285.2,363,256.6,363z M480.9,336.6l-42.7,74c-1.3,2.3-4.1,3.4-6.8,2.4l-43.8-16.4
			c-3.6-1.3-7.6-0.6-10.4,1.8c-16.9,14.4-36,25.6-56.8,33.2v-64.8c9.6-5.6,18.5-12.4,26.6-20.4c24.2-24.2,37.5-56.3,37.5-90.4
			c0-48.2-26.7-91.8-69.8-113.8c-3.2-1.7-7.1-1.5-10.2,0.4c-3.1,1.9-5,5.3-5,8.9v89l-42.9,25.8l-42.9-25.8v-89c0-3.6-1.9-7-5-8.9
			c-3.1-1.9-7-2.1-10.2-0.4c-43,21.9-69.8,65.5-69.8,113.8c0,34.7,13.6,67.2,38.2,91.3c7.9,7.7,16.5,14.2,25.8,19.6v65.2
			c-21.3-7.6-40.8-19-58.1-33.7c-1.9-1.6-4.3-2.5-6.8-2.5c-1.2,0-2.5,0.2-3.7,0.7L80.5,413c-0.6,0.2-1.3,0.4-1.9,0.4
			c-2,0-3.8-1.1-4.8-2.8l-42.7-74c-1.4-2.4-0.8-5.3,1.3-7.1l36.1-29.7c2.9-2.4,4.3-6.2,3.6-9.9C70,278.7,69,267.3,69,256
			c0-11.3,1-22.7,3.1-33.9c0.7-3.7-0.7-7.5-3.6-9.9l-36.1-29.7c-2.1-1.7-2.7-4.7-1.3-7.1l42.7-74c1.3-2.3,4.1-3.4,6.8-2.4l43.8,16.4
			c3.6,1.3,7.6,0.6,10.4-1.8c17.4-14.8,37.1-26.2,58.6-33.9c3.6-1.3,6.2-4.4,6.8-8.1l7.7-46.1c0.4-2.7,2.8-4.6,5.5-4.6h85.4
			c2.7,0,5,2,5.5,4.7l7.7,46.1c0.6,3.7,3.2,6.9,6.8,8.1c21.5,7.6,41.2,19,58.6,33.9c2.9,2.5,6.9,3.2,10.4,1.8L431.5,99
			c0.6-0.2,1.3-0.4,2-0.4c2,0,3.8,1.1,4.8,2.8l42.7,74c1.4,2.4,0.8,5.3-1.3,7.1l-36.1,29.7c-2.9,2.4-4.3,6.2-3.6,9.9
			c2,11.1,3.1,22.5,3.1,33.9s-1,22.7-3.1,33.9c-0.7,3.7,0.7,7.5,3.6,9.9l36.1,29.7C481.8,331.2,482.3,334.2,480.9,336.6z"/>
	</g>
</g>
</svg>
