<?xml version="1.0" encoding="utf-8"?>
<!-- Generator: Adobe Illustrator 27.0.0, SVG Export Plug-In . SVG Version: 6.00 Build 0)  -->
<svg version="1.1" id="Layer_1" xmlns="http://www.w3.org/2000/svg" xmlns:xlink="http://www.w3.org/1999/xlink" x="0px" y="0px"
	 viewBox="0 0 512 512" style="enable-background:new 0 0 512 512;" xml:space="preserve">
<style type="text/css">
	.st0{fill:none;stroke:#FF8243;stroke-width:16;stroke-miterlimit:10;}
	.st1{fill:#FF8243;}
</style>
<path class="st0" d="M332.6,64.6C313.2,43.6,286,32,256,32c-30.2,0-57.4,11.5-76.8,32.4c-19.6,21.1-29.1,49.8-26.9,80.8
	c4.4,61.1,51,110.8,103.7,110.8s99.2-49.7,103.7-110.8C361.9,114.5,352.3,85.8,332.6,64.6z"/>
<path class="st0" d="M432,480H80c-9.3,0.1-18.2-4-24.2-11.1c-6.5-7.8-9.1-18.4-7.2-29.1C57,393,83.4,353.6,124.8,326
	c36.8-24.5,83.4-38,131.2-38s94.4,13.5,131.2,38c41.4,27.6,67.7,66.9,76.2,113.8c1.9,10.7-0.7,21.3-7.2,29.1
	C450.2,476,441.3,480.1,432,480z"/>
<path class="st1" d="M378.4,271.3h71l-20.1,20.1c-6.2,6.2-6.2,15.4,0,21.6c6.2,6.2,15.4,6.2,21.6,0l46.3-46.3
	c1.5-1.5,3.1-3.1,3.1-4.6c1.5-3.1,1.5-7.7,0-12.3c-1.5-1.5-1.5-3.1-3.1-4.6L451,198.8c-3.1-3.1-7.7-4.6-10.8-4.6
	c-3.1,0-7.7,1.5-10.8,4.6c-6.2,6.2-6.2,15.4,0,21.6l20.1,20.1h-71c-9.3,0-15.4,6.2-15.4,15.4C363,265.2,369.2,271.3,378.4,271.3z"/>
</svg>
