<?xml version="1.0" encoding="utf-8"?>
<!-- Generator: Adobe Illustrator 27.1.1, SVG Export Plug-In . SVG Version: 6.00 Build 0)  -->
<svg version="1.1" id="Layer_1" xmlns="http://www.w3.org/2000/svg" xmlns:xlink="http://www.w3.org/1999/xlink" x="0px" y="0px"
	 viewBox="0 0 3707.6 1188" enable-background="new 0 0 3707.6 1188" xml:space="preserve">
<g transform="translate(0.000000,1188.000000) scale(0.100000,-0.100000)">
	<path d="M8599,11876c-2-2-59-11-126-20c-143-19-222-36-352-78c-52-16-608-246-1235-510c-931-391-1193-497-1421-575
		c-154-52-1169-392-2255-755s-2022-681-2079-706c-218-95-383-211-571-401c-196-198-322-390-421-641C58,7986,5,7709,7,7510
		c2-233,22-610,37-695c39-224,45-241,401-1085c303-719,189-396,1080-3060c221-663,423-1251,448-1307c180-410,528-763,932-948
		c39-17,113-60,165-94c161-106,369-199,569-252c102-27,388-69,470-69c145,0,451,56,611,112c47,17,1032,429,2190,915
		c2375,999,1974,844,3635,1399c922,308,994,336,1196,473c198,133,370,303,501,496c34,50,87,122,119,160c187,230,331,530,388,812
		c50,245,58,416,28,620c-18,131-68,336-91,381c-18,35-55,53-126,61l-55,6l-7,63c-8,76-33,177-104,422c-134,467-171,563-715,1857
		l-521,1238l-253,755c-139,415-269,791-288,835c-118,265-296,503-506,677c-115,95-325,249-426,312c-156,97-397,194-575,231
		C8923,11864,8618,11895,8599,11876z M9195,11410c221-47,472-155,583-252c123-106,263-291,344-452c23-45,203-466,401-936l359-855
		l308-920c688-2054,627-1882,842-2405c99-241,207-464,254-526l36-46l-30-32c-16-17-37-46-46-63c-15-31-15-39,6-135
		c20-89,23-132,23-323c0-190-3-233-22-318c-30-131-74-261-130-376c-38-81-58-108-123-171c-104-101-241-197-375-264
		c-60-30-690-299-1400-597l-1290-542l-1115-372C4721,789,4089,580,4018,565c-269-53-543-38-803,46c-77,25-100,38-163,92
		c-142,123-280,302-366,473c-37,75-447,1045-1516,3589c-166,394-185,448-495,1370c-192,575-329,997-340,1053c-15,80-16,103-6,170
		c80,510,390,948,831,1176c58,30,1124,483,2370,1006l2265,952l1025,343c564,189,1147,384,1295,434c448,152,549,173,815,166
		C9045,11432,9125,11425,9195,11410z M1803,9139c-5-5-169-78-364-160c-194-82-391-170-437-195c-81-44-108-50-83-20
		c22,26,175,123,270,171c52,26,205,85,340,130C1769,9146,1826,9162,1803,9139z M12228,5829c75-136,170-294,207-342
		c25-31,45-59,45-62s-13-23-29-46c-43-59-46-85-16-185c14-49,28-113,32-143c6-54,6-54-18-47c-13,4-42,10-65,13l-41,5l-6,82
		c-6,79-65,399-113,606c-13,58-26,115-29,128C12187,5870,12208,5865,12228,5829z M5024,560c-15-15-352-155-440-183
		c-152-48-318-71-264-37c23,15,673,230,695,230C5027,570,5031,567,5024,560z"/>
	<path d="M6305,9271c-103-47-185-207-185-362c0-65,2-63-95-74c-120-12-313-47-450-81c-876-217-1625-767-2128-1562
		c-91-144-254-475-316-643c-115-313-193-669-217-986l-7-93h3497h3496v20c0,57-34,329-56,448c-106,582-343,1107-716,1587
		c-114,147-414,451-563,569c-444,352-944,586-1490,695c-82,17-202,35-265,42c-171,17-164,13-171,95C6615,9186,6463,9343,6305,9271z
		 M5595,8556c-38-25-107-67-151-95c-418-261-776-666-1019-1150c-195-389-338-882-371-1271c-3-47-11-93-16-102c-8-16-29-18-226-18
		c-119,0-223,4-231,9c-30,19,47,387,134,640c277,807,931,1526,1783,1963C5649,8609,5700,8622,5595,8556z"/>
	<path d="M10165,5429c-181-10-807-44-1390-74s-1357-71-1720-90s-1180-62-1815-95c-2683-140-3034-160-3042-168c-5-5-7-62-6-128l3-119
		h4185h4185v345v345l-35,1C10511,5447,10347,5439,10165,5429z"/>
	<path d="M2302,3888l3-472l30-7c68-18,333-41,525-46c523-15,869,85,980,281c17,29,38,60,48,69c126,115,2230,205,5747,248
		c501,6,916,12,923,14c9,3,12,51,12,195v190h-40c-21,0-263-13-537-30c-517-31-825-49-2523-150c-1897-112-2364-140-2945-175
		c-319-19-596-35-615-35c-32,0-37,4-64,55c-46,88-149,177-281,241c-197,96-184,94-762,94h-503L2302,3888z M3198,4238
		c16-16,15-73-2-87c-9-8-117-11-377-9l-364,3l-9,27c-7,18-6,35,2,53l12,25h363C3092,4250,3189,4247,3198,4238z M3198,4038
		c16-16,15-73-2-87c-9-8-117-11-377-9l-364,3l-9,27c-7,18-6,35,2,53l12,25h363C3092,4050,3189,4047,3198,4038z M3198,3838
		c16-16,15-73-2-87c-9-8-117-11-377-9l-364,3l-9,27c-7,18-6,35,2,53l12,25h363C3092,3850,3189,3847,3198,3838z M3198,3638
		c16-16,15-73-2-87c-9-8-117-11-377-9l-364,3l-9,27c-7,18-6,35,2,53l12,25h363C3092,3650,3189,3647,3198,3638z"/>
</g>
<g>
	<g>
		<path d="M1698,183.5c-35.5,3.6-38.6,6.4-38.6,44.1v174.1c0,37.7,3.6,40.5,38.6,43.6v16.8h-140.4v-16.8
			c35.9-4.5,38.6-5.9,38.6-43.6v-85.4h-122.7v85.4c0,37.7,4.1,40,38.2,43.6v16.8h-140v-16.8c33.6-3.6,38.6-5.9,38.6-43.6V227.6
			c0-37.7-4.1-41.4-38.6-44.1v-16.8h140v16.8c-34.5,3.2-38.2,6.4-38.2,44.1v65h122.7v-65c0-37.7-4.5-40.5-38.6-44.1v-16.8H1698
			V183.5z"/>
		<path d="M1839.8,254.8c64.1,0,104.5,48.2,104.5,102.7c0,73.2-52.7,110-106.4,110c-68.6,0-107.7-51.8-107.7-105
			C1730.3,293,1787.6,254.8,1839.8,254.8z M1834.4,273c-19.5,0-38.6,20.5-38.6,76.4c0,56.4,18.6,99.5,47.3,99.5
			c17.3,0,35.9-11.8,35.9-78.2C1878.9,307.5,1862.6,273,1834.4,273z"/>
		<path d="M2222.5,462.1v-15.5c18.2-2.7,21.4-4.5,21.4-32.3v-78.6c0-37.7-17.7-44.5-31.8-44.5c-9.1,0-19.5,2.7-33.6,14.1
			c0.5,5.5,0.9,12.3,0.9,19.1v91.8c0,25.5,1.4,27.7,22.3,30.5v15.5h-102.3v-15.5c20-2.7,21.8-4.1,21.8-30.5v-82.7
			c0-32.3-12.7-42.7-29.5-42.7c-11.4,0-22.3,4.1-35,13.6v111.8c0,25.5,2.7,27.7,19.5,30.5v15.5h-104.1v-15.5
			c25-3.2,26.4-5,26.4-32.3V318c0-25.5-0.5-29.5-21.8-32.7v-14.5c25.5-2.7,51.4-9.1,80-17.3c0,10.9,0,23.6,0,34.1
			c10-6.8,18.2-12.7,27.7-18.6c14.1-8.6,25-14.1,38.6-14.1c25.5,0,42.3,13.6,50.9,34.5c10.9-8.2,20-14.5,31.4-22.3
			c10-6.4,22.7-12.3,36.4-12.3c39.5,0,60.4,26.8,60.4,73.2v88.2c0,25,2.3,26.8,24.5,30.5v15.5H2222.5z"/>
		<path d="M2529.7,417.5c-27.7,40.9-64.1,50-83.2,50c-60.9,0-95.4-45-95.4-99.1c0-31.8,15-63.2,34.1-81.8
			c20.5-20.5,45.9-31.8,70.9-31.8c44.5,0,75.4,36.8,75,74.1c0,7.7-0.5,15.5-5.9,16.8c-8.6,2.3-72.7,5.5-116.8,7.3
			c1.8,48.2,28.6,72.7,61.4,72.7c17.7,0,35.5-6.4,51.8-20.5L2529.7,417.5z M2447,273.5c-18.2,0-33.6,21.4-36.4,57.3
			c18.6-0.5,35.9-0.9,55-1.4c6.4-0.5,9.1-1.4,9.1-9.1C2475.2,297.5,2464.8,273.5,2447,273.5z"/>
		<path d="M2806.1,462.1v-15.5c18.2-2.7,21.4-4.5,21.4-32.3v-78.6c0-37.7-17.7-44.5-31.8-44.5c-9.1,0-19.5,2.7-33.6,14.1
			c0.5,5.5,0.9,12.3,0.9,19.1v91.8c0,25.5,1.4,27.7,22.3,30.5v15.5h-102.3v-15.5c20-2.7,21.8-4.1,21.8-30.5v-82.7
			c0-32.3-12.7-42.7-29.5-42.7c-11.4,0-22.3,4.1-35,13.6v111.8c0,25.5,2.7,27.7,19.5,30.5v15.5h-104.1v-15.5
			c25-3.2,26.4-5,26.4-32.3V318c0-25.5-0.5-29.5-21.8-32.7v-14.5c25.5-2.7,51.4-9.1,80-17.3c0,10.9,0,23.6,0,34.1
			c10-6.8,18.2-12.7,27.7-18.6c14.1-8.6,25-14.1,38.6-14.1c25.5,0,42.3,13.6,50.9,34.5c10.9-8.2,20-14.5,31.4-22.3
			c10-6.4,22.7-12.3,36.4-12.3c39.5,0,60.4,26.8,60.4,73.2v88.2c0,25,2.3,26.8,24.5,30.5v15.5H2806.1z"/>
		<path d="M3086,467.5c-12.3,0-22.3-4.1-28.2-9.5c-6.4-5.5-9.5-11.8-11.8-16.8c-17.3,11.4-39.5,26.4-48.2,26.4
			c-39.1,0-61.8-30.5-61.8-58.6c0-24.1,10.9-35,35-44.5c26.8-10,62.7-20.9,73.2-30v-20c0-23.6-8.6-36.8-28.2-36.8
			c-7.7,0-14.1,3.6-18.2,9.1c-5.5,7.3-7.3,16.4-10.9,30c-3.2,12.3-10.5,15.5-19.5,15.5c-11.8,0-26.8-10.9-26.8-23.6
			c0-8.2,5.5-14.1,15.9-21.4c20.5-13.6,47.3-26.8,72.7-32.3c18.2,0,33.6,4.1,46.8,13.2c19.5,13.6,25,32.7,25,55.9v78.6
			c0,21.8,7.3,27.3,14.5,27.3c4.5,0,9.1-1.4,14.1-3.6l5,15.5L3086,467.5z M3044.2,353c-8.2,4.5-16.4,9.1-25.5,14.1
			c-14.1,7.3-22.3,15.5-22.3,30.9c0,25.5,17.7,34.5,27.7,34.5c6.4,0,12.7-0.5,20-7.3C3044.2,403.9,3044.2,374.4,3044.2,353z"/>
		<path d="M3383.7,450.3c-10.9,1.8-52.7,7.3-89.1,17.7c0-8.6,0-17.3,0-26.4c-8.2,5.5-19.5,12.3-27.7,17.7
			c-10.9,6.8-17.7,8.2-22.7,8.2c-38.6,0-93.6-33.2-93.6-100.9c0-62.3,55-111.8,125.9-111.8c3.2,0,10.9,0,18.2,1.4v-52.3
			c0-24.1-2.3-26.4-30.5-30v-15c30-3.2,66.8-9.1,89.5-15.5c0,17.7,0,33.6,0,53.2v208.2c0,24.5,2.7,26.8,20,29.1l10,1.4V450.3z
			 M3294.6,298c-5-12.7-16.8-22.7-34.1-22.7c-14.1,0-44.5,9.5-44.5,75.4c0,59.5,33.2,81.4,53.6,81.8c8.2,0,15-1.4,25-7.7V298z"/>
		<path d="M3581.4,417.5c-27.7,40.9-64.1,50-83.2,50c-60.9,0-95.4-45-95.4-99.1c0-31.8,15-63.2,34.1-81.8
			c20.5-20.5,45.9-31.8,70.9-31.8c44.5,0,75.4,36.8,75,74.1c0,7.7-0.5,15.5-5.9,16.8c-8.6,2.3-72.7,5.5-116.8,7.3
			c1.8,48.2,28.6,72.7,61.4,72.7c17.7,0,35.5-6.4,51.8-20.5L3581.4,417.5z M3498.7,273.5c-18.2,0-33.6,21.4-36.4,57.3
			c18.6-0.5,35.9-0.9,55-1.4c6.4-0.5,9.1-1.4,9.1-9.1C3526.9,297.5,3516.4,273.5,3498.7,273.5z"/>
		<path d="M1657.6,1010.2c-2.7,0-8.2,0-13.6-0.5c-57.7-2.7-74.5-15-88.2-34.1c-18.2-25-31.4-52.7-46.8-80c-6.8-12.3-13.2-15-27.7-15
			l-9.1-0.5v66.4c0,36.8,4.5,40,38.6,44.1v16.8h-139.1v-16.8c34.5-3.6,38.6-7.3,38.6-44.1V772.5c0-35.9-4.5-40.9-38.6-43.6V712
			h131.8c40.5,0,63.6,4.5,82.3,17.3c18.2,12.3,30.5,32.3,30.5,60.4c0,40.5-26.8,61.8-56.8,73.6c6.8,13.6,24.5,43.2,38.2,64.1
			c15.9,25,25.9,37.3,34.5,47.3c10.5,11.8,15.5,15.5,28.6,20L1657.6,1010.2z M1484.4,861.6c19.5,0,34.5-3.2,44.5-11.8
			c15-12.7,21.4-30,21.4-53.2c0-48.2-27.7-65.4-53.2-65.4c-12.3,0-18.2,1.8-20.9,4.5c-3.2,2.7-4.1,8.2-4.1,17.3v108.6H1484.4z"/>
		<path d="M1842.6,962.9c-27.7,40.9-64.1,50-83.2,50c-60.9,0-95.4-45-95.4-99.1c0-31.8,15-63.2,34.1-81.8
			c20.5-20.5,45.9-31.8,70.9-31.8c44.5,0,75.4,36.8,75,74.1c0,7.7-0.5,15.5-5.9,16.8c-8.6,2.3-72.7,5.5-116.8,7.3
			c1.8,48.2,28.6,72.7,61.4,72.7c17.7,0,35.5-6.4,51.8-20.5L1842.6,962.9z M1759.8,818.8c-18.2,0-33.6,21.4-36.4,57.3
			c18.6-0.5,35.9-0.9,55-1.4c6.4-0.5,9.1-1.4,9.1-9.1C1788,842.9,1777.6,818.8,1759.8,818.8z"/>
		<path d="M2047.5,963.4c-20.9,30-51.4,49.5-79.1,49.5c-62.7,0-99.5-47.3-99.5-97.7c0-33.6,17.3-65.4,46.4-86.8
			c30-22.3,58.6-28.2,79.1-28.2c17.3,0,31.8,5,40,10.9c6.4,4.5,8.6,10,8.6,16.8c-0.5,12.7-13.2,25.5-20.5,25.5c-3.2,0-6.4-1.4-10-5
			c-19.5-16.4-35-23.6-47.3-23.6c-17.7,0-39.1,17.3-39.1,66.4c0,60.4,44.1,80,63.6,80c18.6,0,32.3-5,48.6-19.1L2047.5,963.4z"/>
		<path d="M2063.4,1007.5V992c24.5-3.2,27.3-5,27.3-37.3v-88.6c0-30.5-2.3-32.3-23.6-35v-15c28.6-3.2,57.3-9.1,82.3-16.4
			c0,19.1,0,37.7,0,56.4v98.6c0,30.9,1.8,34.1,28.2,37.3v15.5H2063.4z M2116.6,772c-17.3,0-32.7-14.5-32.7-32.3
			c0-18.6,15.5-32.3,33.2-32.3c18.2,0,32.7,13.6,32.7,32.3C2149.8,757.5,2135.3,772,2116.6,772z"/>
		<path d="M2195.2,816.1c24.1-3.6,54.5-12.3,83.6-20.5c0,9.5,0,23.2,0,32.7c0.9-0.5,30.5-18.2,31.8-18.6c11.4-6.8,21.4-9.5,29.5-9.5
			c50,0,78.6,45.9,78.6,89.5c0,66.4-52.7,110.4-111.4,123.2c-11.4,0-21.8-1.4-28.6-4.1v54.5c0,25.5,2.3,28.2,33.6,32.3v15h-121.8
			v-15c27.7-2.7,29.5-6.8,29.5-31.8V861.1c0-24.5-2.7-27.3-25-30V816.1z M2278.9,974.3c8.6,8.6,25.5,16.8,37.3,16.8
			c24.1,0,41.8-29.5,41.8-78.6c0-55.9-27.7-77.3-50.4-77.3c-11.4,0-20.9,4.5-28.6,10V974.3z"/>
		<path d="M2626.1,962.9c-27.7,40.9-64.1,50-83.2,50c-60.9,0-95.4-45-95.4-99.1c0-31.8,15-63.2,34.1-81.8
			c20.5-20.5,45.9-31.8,70.9-31.8c44.5,0,75.4,36.8,75,74.1c0,7.7-0.5,15.5-5.9,16.8c-8.6,2.3-72.7,5.5-116.8,7.3
			c1.8,48.2,28.6,72.7,61.4,72.7c17.7,0,35.5-6.4,51.8-20.5L2626.1,962.9z M2543.4,818.8c-18.2,0-33.6,21.4-36.4,57.3
			c18.6-0.5,35.9-0.9,55-1.4c6.4-0.5,9.1-1.4,9.1-9.1C2571.6,842.9,2561.1,818.8,2543.4,818.8z"/>
		<path d="M2779.7,864.8c-11.8-31.8-27.3-46.4-48.6-46.4c-12.7,0-24.1,9.1-24.1,24.1c0,15.9,11.4,24.5,35,35
			c36.8,16.4,61.8,31.8,61.8,67.7c0,45.5-43.2,67.7-82.7,67.7c-23.6,0-48.2-9.1-57.7-13.6c-1.8-10.5-5.9-41.8-7.3-57.7l15-2.7
			c9.5,28.6,28.2,55.4,57.7,55.4c17.3,0,25.9-10.5,25.9-23.6c0-14.1-6.8-24.5-35-38.2c-30-14.5-59.1-30.5-59.1-68.2
			c0-35.9,29.5-64.1,77.7-64.1c21.8,0,38.6,4.5,49.1,6.8c1.4,12.3,5.5,41.4,7.3,53.6L2779.7,864.8z"/>
	</g>
</g>
</svg>
