<?xml version="1.0" encoding="utf-8"?>
<!-- Generator: Adobe Illustrator 27.1.1, SVG Export Plug-In . SVG Version: 6.00 Build 0)  -->
<svg version="1.1" id="Capa_1" xmlns="http://www.w3.org/2000/svg" xmlns:xlink="http://www.w3.org/1999/xlink" x="0px" y="0px"
	 viewBox="0 0 310 250" enable-background="new 0 0 310 250" xml:space="preserve">
<g>
	<path d="M295.3,167.3h-78.5c0.3-2.6,0-5.3-1-7.6c-1.6-3.7-4.6-5.9-7.9-5.9H12.2c-3.3,0-6.3,2.2-7.9,5.9s-1.6,8.3,0.1,12l8.5,18.6
		c1.9,4,2.8,8.6,2.8,13.4v3.2c0,23.2,14.4,42.1,32.2,42.1h124.3c17.4,0,31.6-18.2,32.2-40.8h91c8.6,0,15.7-9.1,15.7-20.4
		C311,176.6,304,167.3,295.3,167.3z M172.2,235.4H48c-5.3,0-10.1-2.6-13.9-6.7h57.8c2.9,0,5.2-3.1,5.2-6.7c0-3.8-2.3-6.7-5.2-6.7
		H27.2c-0.5-2.1-0.8-4.5-0.9-6.7h46.2c2.9,0,5.2-3.1,5.2-6.7c0-3.7-2.3-6.7-5.2-6.7H25.3c-0.7-3.9-1.8-7.8-3.4-11.2l-7.3-16.3h191
		l-7.3,15.9c-0.6,1.4-1.2,2.8-1.7,4.4c-0.3,0.8-0.5,1.8-0.8,2.7c-0.1,0.6-0.3,1.1-0.4,1.7c-0.3,1.2-0.5,2.5-0.7,3.7
		c0,0.2-0.1,0.5-0.1,0.8c-0.2,1.3-0.3,2.7-0.4,4.1c0,0.1,0,0.2,0,0.2l-0.4,7.2h0.2C193.3,223.3,183.9,235.4,172.2,235.4z
		 M295.3,194.6h-89.6c0-0.1,0-0.1,0.1-0.2c0.4-1.4,0.9-2.7,1.4-4c0,0,0,0,0-0.1l4.3-9.3h83.8c2.9,0,5.2,3.1,5.2,6.7
		C300.5,191.5,298.2,194.6,295.3,194.6z"/>
	<path d="M51.3,94.2c0,12.7,3.8,24.6,10.7,33.6c1,1.3,2.4,2,3.7,2s2.7-0.7,3.7-2c2-2.6,2-7,0-9.6c-4.9-6.4-7.6-14.9-7.6-24
		s2.7-17.6,7.6-24c6.9-9,10.7-20.9,10.7-33.6S76.3,11.9,69.4,3c-2-2.6-5.3-2.6-7.4,0c-2,2.6-2,7,0,9.6c4.9,6.4,7.6,14.9,7.6,24
		s-2.7,17.6-7.6,24C55.1,69.6,51.3,81.5,51.3,94.2z"/>
	<path d="M115.2,94.2c0,12.7,3.8,24.6,10.7,33.6c1,1.3,2.4,2,3.7,2s2.7-0.7,3.7-2c2-2.6,2-7,0-9.6c-4.9-6.4-7.6-14.9-7.6-24
		s2.7-17.6,7.6-24c6.9-9,10.7-20.9,10.7-33.6S140.2,11.9,133.3,3c-2-2.6-5.3-2.6-7.4,0c-2,2.6-2,7,0,9.6c4.9,6.4,7.6,14.9,7.6,24
		s-2.7,17.6-7.6,24C119,69.6,115.2,81.5,115.2,94.2z"/>
</g>
</svg>
