<?xml version="1.0" encoding="utf-8"?>
<!-- Generator: Adobe Illustrator 27.0.0, SVG Export Plug-In . SVG Version: 6.00 Build 0)  -->
<svg version="1.1" id="Capa_1" xmlns="http://www.w3.org/2000/svg" xmlns:xlink="http://www.w3.org/1999/xlink" x="0px" y="0px"
	 viewBox="0 0 250 250" style="enable-background:new 0 0 250 250;" xml:space="preserve">
<style type="text/css">
	.st0{fill:#FF8243;}
</style>
<g>
	<g>
		<path class="st0" d="M56.1,249.8c2.9,0,6.1-0.8,9.5-2.4l59.3-34l59.3,34c3.4,1.6,6.6,2.4,9.5,2.4c9,0,15-7.3,14.6-19.4l-7.7-69.1
			l44.2-47.9c9.2-12.8,4.8-26.5-9.9-30.6L169,71.6l-29-61.6c-4.3-6.9-10-10.3-15.8-10.3c-5.5,0-11.1,3.1-15.5,9.5L75,71.6L14.8,82.2
			c-14.6,4.4-19,18.3-9.8,31.1l44.2,47.9l-7.7,69.1C41.1,242.5,47.2,249.8,56.1,249.8z M21,101.6l57.1-10.1l9-1.6l4.5-8.4l32.3-60
			l27.8,59l4.4,9.3l9.8,1.6l62.3,10.6l-41.5,45l-6.4,6.9l1.1,9.6l7.1,63.3L134,195.6l-9.2-5.3l-9.2,5.3l-54.4,31.3l7.1-63.3l1.1-9.6
			l-6.4-6.9L21,101.6z"/>
	</g>
</g>
</svg>
