<?xml version="1.0" encoding="utf-8"?>
<!-- Generator: Adobe Illustrator 27.0.0, SVG Export Plug-In . SVG Version: 6.00 Build 0)  -->
<svg version="1.1" id="Layer_1" xmlns="http://www.w3.org/2000/svg" xmlns:xlink="http://www.w3.org/1999/xlink" x="0px" y="0px"
	 viewBox="0 0 310 250" style="enable-background:new 0 0 310 250;" xml:space="preserve">
<g>
	<g>
		<path d="M284.4,152c11.1-23.2,9.2-54.7-5.7-75.1c-8.3-11.3-19.3-17.5-31-17.5c-10.1,0-19.6,4.6-27.4,13.1
			c-3.5-4.2-7.6-8.2-12.6-10.5c-2.8-1.3-6-1.9-9.8-1.9c-3.1,0-6.3,0.4-9.4,0.8c-3,0.4-6.1,0.8-9,0.8c-1.8,0-3.3-0.1-4.7-0.4
			c-3.8-0.8-7.8-3.1-12-5.6c-6.1-3.6-12.4-7.3-19.5-7.3c-7,0-13.4,3.7-19.5,7.3c-4.2,2.5-8.3,4.9-12,5.6c-1.4,0.3-3,0.4-4.7,0.4
			c-2.9,0-6-0.4-9-0.8c-3.1-0.4-6.3-0.8-9.4-0.8c-3.8,0-7,0.6-9.8,1.9c-7.4,3.4-12.9,10.7-17.8,17.1c-3,4-5.8,7.7-8.7,10.1
			c-3.4,2.9-7.4,5.1-11.3,7.2c-6.8,3.7-13.9,7.6-18.2,15.4c-6.3,11.3-5.7,25.1-5.2,37.2c0,1,0.1,2,0.1,2.9H-0.2v6.3
			c0,50.2,29.9,91.1,66.7,91.1H106v-12.5H66.6c-30.2,0-55-31.9-57.4-72.3h8.5h113.2h36.7h51.3h13.4h44.2h23.1
			c-2.3,40.4-27.2,72.3-57.4,72.3h-124v12.5h124c36.8,0,66.7-40.9,66.7-91.1V152L284.4,152L284.4,152z M73.1,152
			c-6.6,0-12-7.3-12-16.4c0-9,5.4-16.4,12-16.4c6.6,0,12,7.3,12,16.4C85.1,144.7,79.7,152,73.1,152z M90.6,152
			c0.1-0.1,0.1-0.3,0.2-0.4c0.1,0.1,0.2,0.3,0.2,0.4H90.6z M110.5,152c-9,0-16.3-10-16.3-22.2s7.3-22.2,16.3-22.2
			c6.8,0,12.8,5.7,15.1,14.1l-16.5,12.6l0,0l2.2,5.5c0.3,0.8,0.7,1.7,1.1,2.5c0.1,0.2,0.2,0.4,0.3,0.7c0.3,0.7,0.7,1.4,1,2
			c0.1,0.1,0.1,0.2,0.2,0.3c0.4,0.8,0.8,1.6,1.3,2.3c0.1,0.1,0.2,0.3,0.3,0.4c0.4,0.7,0.9,1.4,1.3,2.1c0,0,0,0.1,0.1,0.1
			C114.9,151.4,112.7,152,110.5,152z M166,151.6c-0.2,0.1-0.4,0.3-0.5,0.4h-32.4v0c-2.1-1.5-4.1-3.4-5.9-5.5l0,0
			c-2-2.3-3.7-4.8-5.2-7.6l59.2-45.3C187.3,115.1,181.1,140,166,151.6z M212.1,84.3c-0.3,0.5-0.5,1-0.8,1.5
			c-0.1,0.3-0.3,0.5-0.4,0.8c-0.3,0.5-0.5,1.1-0.7,1.6c-0.1,0.2-0.2,0.5-0.3,0.7c-0.3,0.8-0.7,1.6-1,2.4c0,0.1,0,0.1-0.1,0.2
			c-0.3,0.7-0.6,1.5-0.8,2.3c-0.1,0.3-0.2,0.5-0.3,0.8c-0.2,0.6-0.4,1.1-0.5,1.7c-0.1,0.3-0.2,0.6-0.3,0.9c-0.2,0.6-0.3,1.1-0.5,1.7
			c-0.1,0.3-0.2,0.6-0.2,0.8c-0.2,0.7-0.3,1.4-0.5,2.1c0,0.1-0.1,0.3-0.1,0.4c-0.2,0.8-0.3,1.7-0.5,2.6c0,0.3-0.1,0.5-0.1,0.8
			c-0.1,0.6-0.2,1.2-0.3,1.8c0,0.3-0.1,0.6-0.1,1c-0.1,0.6-0.1,1.1-0.2,1.7c0,0.3-0.1,0.6-0.1,1c-0.1,0.6-0.1,1.3-0.2,1.9
			c0,0.2,0,0.5-0.1,0.7c-0.1,0.9-0.1,1.7-0.1,2.6c0,0.2,0,0.5,0,0.7c0,0.7,0,1.3,0,2c0,0.3,0,0.6,0,1c0,0.6,0,1.1,0,1.7
			c0,0.3,0,0.7,0,1c0,0.6,0.1,1.2,0.1,1.8c0,0.3,0,0.6,0.1,0.9c0.1,0.9,0.1,1.7,0.2,2.6c0,0.1,0,0.2,0,0.4c0.1,0.7,0.2,1.5,0.3,2.2
			c0,0.3,0.1,0.6,0.1,0.9c0.1,0.6,0.2,1.2,0.3,1.7c0.1,0.3,0.1,0.6,0.2,1c0.1,0.6,0.2,1.1,0.3,1.7c0.1,0.3,0.1,0.6,0.2,0.9
			c0.2,0.7,0.3,1.4,0.5,2.1c0,0.1,0.1,0.3,0.1,0.4c0.2,0.8,0.4,1.7,0.7,2.5c0.1,0.2,0.2,0.5,0.2,0.7c0.2,0.6,0.4,1.2,0.6,1.7
			c0.1,0.3,0.2,0.6,0.3,0.9c0.2,0.5,0.4,1.1,0.6,1.6c0.1,0.3,0.2,0.6,0.3,0.8c0.2,0.6,0.5,1.2,0.7,1.8c0.1,0.2,0.1,0.4,0.2,0.5
			c0.3,0.7,0.7,1.5,1,2.2h-30.5v0c12.9-18.3,16.2-46.8,6.7-70.1l-2.2-5.5l-51.1,39.1c-4-12.2-13-20.5-23.2-20.5
			c-10.1,0-18.8,8-22.9,19.6c-3.8-4.9-8.9-7.9-14.5-7.9c-11.7,0-21.2,13-21.2,28.9c0,6.1,1.4,11.7,3.7,16.4H26.8
			c0-1.2-0.1-2.4-0.1-3.6c-0.4-11-0.9-21.3,3.4-29c2.8-5,8.4-8.1,14.3-11.3c4.2-2.3,8.6-4.7,12.7-8.1c3.7-3.1,7.1-7.5,10.3-11.8
			c4.4-5.8,8.9-11.8,14.3-14.2c1.9-0.9,4.1-1.3,6.9-1.3c2.7,0,5.5,0.4,8.6,0.8c3.2,0.4,6.5,0.9,9.9,0.9c2.2,0,4.2-0.2,6.1-0.6
			c5-1,9.7-3.8,14.3-6.5c5.5-3.2,10.7-6.3,15.8-6.3c5.2,0,10.3,3,15.8,6.3c4.6,2.7,9.3,5.5,14.3,6.5c1.9,0.4,3.9,0.6,6.1,0.6
			c3.4,0,6.7-0.4,9.9-0.9c3-0.4,5.9-0.8,8.6-0.8c2.8,0,5,0.4,6.9,1.3c3.3,1.5,6.3,4.3,8.9,7.4c0,0,0,0.1-0.1,0.1
			c-0.1,0.2-0.2,0.3-0.3,0.5c-0.3,0.6-0.7,1.2-1,1.7C212.3,83.8,212.2,84.1,212.1,84.3z M275.3,148L260,127.2l-6.5,8.9l11.7,16h-35
			v0l11.7-16l-6.5-8.9L220.2,148c0-0.1-0.1-0.1-0.1-0.2c-0.2-0.3-0.3-0.6-0.5-0.9c-0.2-0.3-0.3-0.6-0.5-1c-0.2-0.3-0.3-0.6-0.5-1
			c-0.2-0.3-0.3-0.7-0.4-1c-0.1-0.3-0.3-0.7-0.4-1c-0.1-0.3-0.3-0.7-0.4-1c-0.1-0.3-0.3-0.7-0.4-1c-0.1-0.3-0.2-0.7-0.4-1
			c-0.1-0.4-0.3-0.7-0.4-1.1c-0.1-0.3-0.2-0.7-0.3-1c-0.1-0.4-0.2-0.7-0.3-1.1c-0.1-0.3-0.2-0.7-0.3-1c-0.1-0.4-0.2-0.7-0.3-1.1
			c-0.1-0.3-0.2-0.7-0.2-1c-0.1-0.4-0.2-0.8-0.3-1.1c-0.1-0.3-0.1-0.7-0.2-1c-0.1-0.4-0.2-0.8-0.2-1.2c-0.1-0.3-0.1-0.7-0.2-1
			c-0.1-0.4-0.1-0.8-0.2-1.2c0-0.3-0.1-0.7-0.1-1c0-0.4-0.1-0.8-0.1-1.2c0-0.3-0.1-0.7-0.1-1c0-0.4-0.1-0.8-0.1-1.2
			c0-0.3,0-0.7-0.1-1c0-0.4,0-0.8-0.1-1.3c0-0.3,0-0.7,0-1c0-0.4,0-0.8,0-1.3c0-0.3,0-0.7,0-1c0-0.4,0-0.9,0-1.3c0-0.3,0-0.6,0.1-1
			c0-0.4,0-0.9,0.1-1.3c0-0.3,0.1-0.6,0.1-0.9c0-0.4,0.1-0.9,0.1-1.3c0-0.3,0.1-0.6,0.1-0.9c0.1-0.4,0.1-0.9,0.2-1.3
			c0-0.3,0.1-0.6,0.1-0.9c0.1-0.4,0.1-0.9,0.2-1.3c0.1-0.3,0.1-0.6,0.2-0.9c0.1-0.4,0.2-0.9,0.3-1.3c0.1-0.3,0.1-0.6,0.2-0.9
			c0.1-0.4,0.2-0.9,0.3-1.3c0.1-0.3,0.2-0.6,0.2-0.8c0.1-0.4,0.2-0.9,0.4-1.3c0.1-0.3,0.2-0.5,0.3-0.8c0.1-0.4,0.3-0.9,0.4-1.3
			c0.1-0.3,0.2-0.5,0.3-0.8c0.2-0.4,0.3-0.9,0.5-1.3c0.1-0.3,0.2-0.5,0.3-0.8c0.2-0.4,0.3-0.8,0.5-1.3c0.1-0.3,0.2-0.5,0.3-0.8
			c0.2-0.4,0.4-0.8,0.6-1.2c0.1-0.3,0.3-0.5,0.4-0.8c0.2-0.4,0.4-0.8,0.6-1.2c0.1-0.2,0.3-0.5,0.4-0.7l15.3,20.8l6.5-8.9l-15.3-20.8
			c6-6.3,13.3-9.7,21.1-9.7s15,3.4,21.1,9.7l-15.3,20.8l6.5,8.9l15.3-20.8C284.7,107.4,284.7,131.1,275.3,148z"/>
	</g>
</g>
</svg>
