<?xml version="1.0" encoding="utf-8"?>
<!-- Generator: Adobe Illustrator 27.1.1, SVG Export Plug-In . SVG Version: 6.00 Build 0)  -->
<svg version="1.1" id="Capa_1" xmlns="http://www.w3.org/2000/svg" xmlns:xlink="http://www.w3.org/1999/xlink" x="0px" y="0px"
	 viewBox="0 0 16 16" enable-background="new 0 0 16 16" xml:space="preserve">
<g>
	<g>
		<path fill="#FF8243" d="M3.6,16c0.2,0,0.4-0.1,0.6-0.2L8,13.7l3.8,2.2c0.2,0.1,0.4,0.2,0.6,0.2c0.6,0,1-0.5,0.9-1.2l-0.5-4.4
			l2.8-3.1c0.6-0.8,0.3-1.7-0.6-2l-4.2-0.7L8.9,0.7C8.7,0.2,8.3,0,7.9,0c-0.4,0-0.7,0.2-1,0.6l-2.2,4L0.9,5.3C0,5.6-0.3,6.4,0.3,7.3
			l2.8,3.1l-0.5,4.4C2.6,15.5,3,16,3.6,16z M1.3,6.5L5,5.9l0.6-0.1l0.3-0.5l2.1-3.8l1.8,3.8L10,5.8l0.6,0.1l4,0.7l-2.7,2.9l-0.4,0.4
			l0.1,0.6l0.5,4l-3.5-2L8,12.2l-0.6,0.3l-3.5,2l0.5-4l0.1-0.6L4,9.4L1.3,6.5z"/>
	</g>
</g>
</svg>
