<?xml version="1.0" encoding="utf-8"?>
<!-- Generator: Adobe Illustrator 27.0.0, SVG Export Plug-In . SVG Version: 6.00 Build 0)  -->
<svg version="1.1" id="Capa_1" xmlns="http://www.w3.org/2000/svg" xmlns:xlink="http://www.w3.org/1999/xlink" x="0px" y="0px"
	 viewBox="0 0 310 250" style="enable-background:new 0 0 310 250;" xml:space="preserve">
<style type="text/css">
	.st0{fill:#FF8243;}
	.st1{fill:#FFFFFF;}
</style>
<g>
	<path class="st0" d="M153.8,250.7c-40.3,0-78.2-6.6-106.8-18.5c-30.4-12.7-47.1-30.4-47.1-49.9c0-5.2,1.2-10.5,3.7-15.6l0.2-0.4
		l-0.2-0.4c-2.5-5.2-3.7-10.3-3.7-15.6c0-5.3,1.3-10.6,3.8-15.7l0.2-0.4l-0.2-0.4c-2.5-5-3.8-10.3-3.8-15.7
		c0-17.6,13.3-33.5,38.5-46.1c22.2-10.9,52.7-18.4,86.1-21.2l0.5,0l0.3-0.5c4.8-8.8,12.6-15,21.5-17.2l1-0.2l-0.2-1
		C145,20.8,136.1,13,125.9,13h-6.4c-3,0-5.5-2.9-5.5-6.4s2.5-6.4,5.5-6.4h6.4c16.3,0,30.1,13.3,32.9,31.6l0.1,0.7l0.7,0.1
		c9.6,1.8,18.1,8.3,23.2,17.7l0.3,0.5l0.5,0c33.1,2.8,63.5,10.3,85.7,21.3c25.1,12.4,38.4,28.3,38.4,46c0,5.4-1.2,10.5-3.7,15.7
		l-0.2,0.4l0.2,0.4c2.6,5.2,3.8,10.4,3.6,15.6c0,5.4-1.2,10.6-3.7,15.6l-0.2,0.4l0.2,0.4c2.5,5.2,3.7,10.3,3.7,15.6
		c0,19.4-16.7,37.2-47.1,49.9C232,244.1,194.1,250.7,153.8,250.7z M11.1,179.1c-0.2,1-0.3,2.2-0.3,3.3c0,13.5,14.7,27.3,40.3,38
		c27.4,11.4,63.9,17.7,102.8,17.7c67,0,115.4-18.5,133.6-36.9c6.2-6.3,9.4-12.7,9.3-19c0-1.1-0.1-2.1-0.3-3.2l-0.4-1.9l-1.3,1.4
		c-8.4,8.6-20.4,16.1-35.8,22.3l-0.5,0.2l-0.1,0.5c-2.8,11.9-12.2,20.2-22.9,20.2c-6.6,0-12.7-3-17.2-8.5l-0.4-0.5l-0.6,0.1
		c-20,3.9-41.4,5.9-63.5,5.9c-40.3,0-78.2-6.6-106.8-18.5c-14.6-6.1-26.1-13.4-34.2-21.7l-1.3-1.4L11.1,179.1z M222.8,194.6
		c0,8,6,14.8,13.1,14.8c7.1,0,12.8-6.5,12.8-14.5v-64.6c0-0.1,0.1-0.3,0.1-0.5c0-0.1,0.1-0.2,0.1-0.3c0,0,0-0.1,0-0.1l0.1-0.2l0,0
		c0-0.1,0.1-0.2,0.1-0.2c0.1-0.2,0.2-0.3,0.2-0.6c0,0,0,0,0,0c0.1-0.1,0.2-0.2,0.3-0.3l0.3-0.3l0-0.2c0,0,0.1-0.1,0.1-0.1l0.3-0.3
		l0-0.2c0,0,0-0.1,0-0.1c0,0,0.3-0.3,0.3-0.3l0-0.1c0.1-0.1,0.2-0.2,0.2-0.2l0.1-0.1c0.2-0.2,0.2-0.2,0.2-0.2l0.1,0l0.1,0
		c9.6-6.5,14.9-13.7,14.9-20.4c0-8.1-7.3-16.6-20.7-24c-14.3-7.9-33.8-13.6-56.5-16.6l-1.3-0.2L188,66c0.2,1.6,0.3,3.5,0.3,5.3
		c0,21.4-15.2,38.9-33.9,38.9c-18.7,0-33.9-17.5-33.9-38.9c0-1.8,0.1-3.6,0.3-5.4l0.1-1.3l-1.3,0.2c-22.8,2.9-42.5,8.7-56.9,16.6
		c-13.4,7.4-20.9,15.9-20.9,24c0,10,11.5,20.8,30.8,28.8c21.7,9.1,50.6,14.1,81.4,14.1c21.9,0,43.4-2.6,62.1-7.6h0.4l0.1-0.1h1.6
		c0.1,0.1,0.3,0.1,0.4,0.1c0.1,0,0.2,0.1,0.3,0.1c0.1,0,0.2,0.1,0.3,0.1c0,0,0.1,0,0.1,0c0.1,0.1,0.2,0.1,0.3,0.1c0,0,0.1,0,0.1,0
		l0.2,0.2h0.1c0,0,0.1,0.1,0.1,0.1l0.4,0.4h0.1c0.1,0.1,0.1,0.1,0.2,0.1l0.4,0.4c0.1,0.2,0.3,0.4,0.4,0.5l0.1,0.1
		c0,0.1,0.1,0.2,0.2,0.3c0,0.1,0.1,0.2,0.2,0.3c0,0,0,0.1,0.1,0.1c0,0,0,0.1,0,0.1c0,0.1,0.1,0.2,0.1,0.3c0,0.1,0.1,0.2,0.1,0.3
		c0,0,0,0,0,0c0,0.2,0.1,0.3,0.1,0.4c0,0.1,0.1,0.2,0.1,0.3v0.6l0.1,0.1V194.6z M11.2,146.9c-0.2,1.2-0.3,2.2-0.3,3.4
		c0,3.9,1.1,7.6,3.4,11.5l0.1,0.1c0.3,0.4,0.5,0.7,0.7,1.1l0,0.1l0.1,0.1c7.7,11.4,25,22,48.5,29.8c25.8,8.5,57,13,90.2,13
		c20.4,0,39.8-1.7,57.7-4.9l1-0.2l-0.2-1c-0.3-1.8-0.5-3.6-0.5-5.3v-40l-1.2,0.3c-17.5,3.9-37.2,6-56.8,6c-32,0-62.2-5.3-85-14.8
		c-24.6-10.2-38.1-24.7-38.1-40.8c0-5.2,1.4-10.2,4.1-14.9l2-3.4l-3.4,2.1c-14.6,9-22.7,19.4-22.8,29.1c0,13.5,14.7,27.3,40.3,38
		c27.4,11.4,63.9,17.7,102.8,17.7c12,0,23.9-0.6,35.4-1.8c0.1,0,0.3,0,0.4,0c2.8,0,5.3,2.5,5.5,5.8c0.3,3.5-1.9,6.6-4.9,6.9
		c-11.4,1.3-23.6,1.9-36.3,1.9c-40.3,0-78.2-6.6-106.8-18.5c-14.6-6.2-26.1-13.5-34.2-21.7l-1.4-1.4L11.2,146.9z M295,146.4
		c-8.2,8.3-20,15.7-35,21.9l-0.6,0.3v18.6l1.4-0.6c15-6.7,25.9-14.8,31.7-23.2c0.3-0.5,0.6-1,1-1.4l0,0l0-0.1
		c2.3-3.7,3.4-7.6,3.4-11.4c0-1.1-0.1-2.2-0.3-3.4l-0.3-1.9L295,146.4z M272.9,90.2c2.7,4.8,4.1,9.9,4.1,15c0,7.4-3,18.5-17.2,29.2
		l-0.4,0.3V155l1.4-0.6c15.5-7,26.7-15.3,32.2-24l0.2-0.2v-0.1c2.5-4,3.8-8,3.8-12c0-9.7-8.1-20.1-22.7-29.2l-3.3-2.1L272.9,90.2z
		 M154.2,45c-12.7,0-23,11.7-23,26.1s10.3,26.1,23,26.1c12.7,0,23-11.7,23-26.1S166.9,45,154.2,45z"/>
	<path class="st1" d="M125.9,1.2c7.6,0,15,3.1,20.8,8.7c5.8,5.6,9.8,13.4,11.1,22l0.2,1.4l1.4,0.3c9.3,1.8,17.5,8,22.5,17.2l0.5,0.9
		l1.1,0.1c33,2.8,63.3,10.3,85.4,21.2c24.8,12.2,37.9,27.8,37.9,45.1c0,5.2-1.2,10.2-3.6,15.2l-0.4,0.9l0.4,0.9
		c2.5,5,3.7,10.1,3.5,15.1l0,0v0c0,5.2-1.2,10.3-3.6,15.1l-0.4,0.9l0.4,0.9c2.4,5,3.6,10,3.6,15.1c0,19-16.5,36.4-46.5,49
		c-28.4,11.9-66.2,18.4-106.4,18.4s-78-6.6-106.4-18.4c-30-12.5-46.5-29.9-46.5-49c0-5.1,1.2-10.2,3.6-15.1l0.4-0.9l-0.4-0.9
		c-2.4-5-3.6-10-3.6-15.1c0-5.2,1.2-10.3,3.7-15.2l0.4-0.9l-0.4-0.9c-2.4-4.9-3.7-10-3.7-15.2c0-17.2,13.1-32.8,38-45.2
		c22-10.8,52.5-18.3,85.8-21.1l1.1-0.1l0.5-0.9c4.7-8.5,12.3-14.6,20.8-16.7l1.9-0.5l-0.4-1.9c-2.7-11.6-12-19.7-22.6-19.7h-6.4
		c-2.5,0-4.5-2.4-4.5-5.4s2-5.4,4.5-5.4H125.9 M154.2,98.2c13.2,0,24-12.2,24-27.1c0-14.9-10.8-27.1-24-27.1
		c-13.2,0-24,12.2-24,27.1C130.2,86,141,98.2,154.2,98.2 M154.1,149.3c22,0,43.5-2.6,62.3-7.6h0.7l0.1-0.1h0.1h0.4h0.1h0.2h0.3
		c0.1,0,0.2,0,0.3,0.1c0.1,0,0.1,0,0.2,0.1c0.1,0,0.2,0.1,0.3,0.1c0.1,0,0.2,0.1,0.3,0.1l0.3,0.3h0.2l0.5,0.5h0.1l0,0l0.2,0.2
		c0.2,0.3,0.3,0.4,0.4,0.5l0,0c0,0.1,0.1,0.2,0.2,0.2c0,0.1,0.1,0.2,0.2,0.3c0,0.1,0.1,0.2,0.1,0.3c0,0.1,0,0.2,0.1,0.2
		c0,0.2,0.1,0.3,0.1,0.5c0,0,0,0.1,0,0.1v0v0.8l0.1,0.1v0.1v0.4v0.1v47.9c0,8.6,6.5,15.8,14.1,15.8c7.6,0,13.8-7,13.8-15.5v-63.4
		v-0.3v-0.3v-0.5c0-0.1,0.1-0.3,0.1-0.4c0-0.1,0-0.1,0.1-0.2l0.2-0.3v-0.1c0.1-0.2,0.2-0.3,0.2-0.5c0.1-0.1,0.1-0.2,0.2-0.3l0.5-0.5
		v-0.2l0.4-0.4v-0.2l0.1-0.1l0,0c0.1,0,0.1-0.1,0.2-0.1l0.1-0.1c0,0,0,0,0.1-0.1l0,0l0.1-0.1c9.9-6.6,15.4-14.2,15.4-21.3
		c0-15.6-26.8-34.9-78-41.6l-2.5-0.3l0.3,2.6c0.2,1.6,0.3,3.4,0.3,5.2c0,20.9-14.8,37.9-32.9,37.9s-32.9-17-32.9-37.9
		c0-1.8,0.1-3.5,0.3-5.3l0.3-2.5l-2.5,0.3c-22.9,2.9-42.7,8.7-57.3,16.7c-13.8,7.6-21.4,16.4-21.4,24.9c0,10.6,11.5,21.4,31.4,29.7
		C94.1,144.3,123.2,149.3,154.1,149.3 M258.4,156.6l2.8-1.3c15.7-7,27-15.5,32.7-24.4l0.3-0.5v-0.1c2.5-4.1,3.8-8.2,3.8-12.3
		c0-10.1-8.2-20.8-23.1-30.1l-6.6-4.1l3.8,6.8c2.6,4.7,3.9,9.5,3.9,14.5c0,7.2-2.9,18-16.8,28.4l-0.8,0.6v1v18.3V156.6 M153.8,174.8
		c12,0,24-0.6,35.5-1.8c0.1,0,0.2,0,0.3,0c2.3,0,4.3,2.1,4.5,4.9l0,0l0,0c0.3,2.9-1.5,5.5-4,5.8c-11.4,1.3-23.5,1.9-36.2,1.9
		c-40.2,0-78-6.6-106.4-18.4C33,161,21.6,153.8,13.6,145.7l-2.7-2.7l-0.7,3.8c-0.2,1.2-0.3,2.4-0.3,3.6c0,4,1.2,8,3.6,12l0.1,0.1
		l0.1,0.1c0.2,0.3,0.4,0.6,0.5,0.8l0.1,0.2l0.1,0.2c7.8,11.6,25.3,22.3,49.1,30.2c25.9,8.6,57.2,13.1,90.5,13.1
		c20.4,0,39.9-1.7,57.9-4.9l2-0.4l-0.3-2c-0.3-1.7-0.5-3.5-0.5-5.2v-38.8v-2.5l-2.4,0.5c-17.5,3.9-37,6-56.6,6
		c-31.9,0-61.9-5.2-84.6-14.7c-24.2-10.1-37.5-24.2-37.5-39.9c0-5,1.3-9.9,3.9-14.4l3.9-6.9l-6.7,4.2c-14.9,9.2-23.1,19.8-23.2,30
		c0,13.9,14.9,28.1,40.9,38.9C78.1,168.5,114.8,174.8,153.8,174.8 M258.4,188.7l2.8-1.3c15.1-6.8,26.2-15,32.1-23.6l0,0l0-0.1
		c0.3-0.5,0.5-0.9,0.8-1.3l0.1-0.1l0.1-0.1c2.4-3.9,3.6-7.9,3.6-11.9c0-1.2-0.1-2.3-0.3-3.6L297,143l-2.7,2.7
		c-8.1,8.2-19.8,15.5-34.6,21.7l-1.2,0.5v1.3v16.4V188.7 M153.9,239.1c30.3,0,59.2-3.8,83.8-11c22.4-6.6,40.3-15.9,50.5-26.1
		c6.4-6.5,9.7-13.1,9.6-19.6c0-1.1-0.1-2.3-0.3-3.4l-0.7-3.7l-2.6,2.7c-8.3,8.5-20.2,15.9-35.4,22l-1,0.4l-0.2,1
		c-2.7,11.5-11.7,19.5-22,19.5c-6.3,0-12.1-2.9-16.5-8.2l-0.8-0.9l-1.2,0.2c-20,3.9-41.3,5.9-63.3,5.9c-40.2,0-78-6.6-106.4-18.4
		c-14.5-6.1-25.9-13.3-33.8-21.5l-2.6-2.7l-0.7,3.7c-0.2,1.1-0.3,2.3-0.3,3.5c0,13.9,14.9,28.1,40.9,38.9
		C78.2,232.8,114.9,239.1,153.9,239.1 M125.9-0.8h-6.4c-3.6,0-6.5,3.3-6.5,7.4s2.9,7.4,6.5,7.4h6.4c9.9,0,18.3,7.7,20.7,18.1
		c-9.3,2.3-17.2,8.8-22.1,17.7C91,52.6,60.4,60.1,38,71.1C12.5,83.8-1.1,100-1.1,118.1c0,5.5,1.3,10.9,3.9,16.1
		c-2.6,5.2-3.9,10.6-3.9,16.1s1.3,10.8,3.8,16c-2.5,5.2-3.8,10.6-3.8,16c0,19.9,17,38,47.7,50.8c28.7,12,66.8,18.6,107.2,18.6
		s78.5-6.6,107.2-18.6c30.8-12.9,47.7-30.9,47.7-50.8c0-5.5-1.3-10.8-3.8-16c2.5-5.1,3.8-10.5,3.8-16c0.2-5.5-1.1-10.9-3.7-16.1
		c2.5-5.2,3.8-10.5,3.8-16.1c0-18.1-13.5-34.3-39-46.9c-22.3-11-52.8-18.6-86.1-21.4c-5.2-9.5-13.9-16.3-23.9-18.2
		C157,13.2,142.8-0.8,125.9-0.8L125.9-0.8z M154.2,96.2c-12.1,0-22-11.3-22-25.1S142,46,154.2,46c12.1,0,22,11.3,22,25.1
		S166.3,96.2,154.2,96.2L154.2,96.2z M119.8,65.8c-0.2,1.8-0.3,3.6-0.3,5.5c0,22,15.7,39.9,34.9,39.9s34.9-17.9,34.9-39.9
		c0-1.8-0.1-3.7-0.3-5.4c48,6.3,76.3,24.5,76.3,39.6c0,6.3-5.1,13.3-14.5,19.6c-0.2,0.1-0.3,0.2-0.5,0.4l-0.1,0.1
		c-0.1,0.1-0.3,0.2-0.4,0.4l-0.1,0.1c-0.1,0.1-0.2,0.2-0.3,0.4c0,0.1-0.1,0.1-0.1,0.2c-0.1,0.1-0.2,0.3-0.3,0.4
		c0,0.1-0.1,0.1-0.1,0.2c-0.1,0.1-0.2,0.3-0.3,0.4l-0.1,0.1c-0.1,0.2-0.2,0.3-0.2,0.5c0,0,0,0.1-0.1,0.1c-0.1,0.2-0.1,0.4-0.2,0.5
		v0.1c-0.1,0.2-0.1,0.4-0.2,0.6v0.1c0,0.2-0.1,0.4-0.1,0.5c0,0.1,0,0.1,0,0.2c0,0.2,0,0.3,0,0.5c0,0.1,0,0.2,0,0.3
		c0,0.1,0,0.2,0,0.3v63.4c0,7.4-5.3,13.5-11.8,13.5s-12.1-6.4-12.1-13.8v-47.9v-0.1c0-0.1,0-0.3,0-0.4c0-0.1,0-0.2,0-0.3
		c0-0.1,0-0.2,0-0.3s0-0.3-0.1-0.4v-0.1c0-0.1,0-0.1,0-0.2c0-0.1-0.1-0.3-0.1-0.4s-0.1-0.2-0.1-0.3c0-0.1-0.1-0.3-0.1-0.4
		s-0.1-0.2-0.1-0.3s-0.1-0.2-0.1-0.3c-0.1-0.1-0.1-0.2-0.2-0.3c-0.1-0.1-0.1-0.2-0.2-0.3c-0.1-0.1-0.1-0.2-0.2-0.3
		c-0.1-0.1-0.1-0.2-0.2-0.2c-0.1-0.1-0.2-0.2-0.2-0.3c-0.1-0.1-0.1-0.2-0.2-0.2c-0.1-0.1-0.2-0.2-0.2-0.2c-0.1-0.1-0.2-0.2-0.2-0.2
		c-0.1-0.1-0.2-0.1-0.2-0.2c-0.1-0.1-0.2-0.2-0.3-0.2c-0.1-0.1-0.1-0.1-0.2-0.2s-0.2-0.1-0.3-0.2c-0.1,0-0.1-0.1-0.2-0.1
		c-0.1-0.1-0.2-0.1-0.4-0.2c-0.1,0-0.2-0.1-0.2-0.1c-0.1,0-0.2-0.1-0.3-0.1c-0.1,0-0.2-0.1-0.3-0.1c-0.1,0-0.2-0.1-0.3-0.1
		s-0.2,0-0.3-0.1c-0.1,0-0.2,0-0.3,0c-0.1,0-0.3,0-0.4,0s-0.1,0-0.2,0h-0.1c-0.1,0-0.2,0-0.4,0c-0.1,0-0.2,0-0.3,0s-0.2,0-0.3,0
		c-0.1,0-0.3,0-0.4,0.1c0,0,0,0-0.1,0c-18.4,4.9-39.9,7.6-62,7.6c-30.7,0-59.5-5-81-14c-18.9-7.9-30.2-18.3-30.2-27.9
		C42.9,90.3,71.5,72,119.8,65.8L119.8,65.8z M260.4,153.5v-18.3c14.5-10.9,17.6-22.2,17.6-30c0-4.4-1-9.8-4.2-15.5
		c14.4,9,22.2,19.1,22.2,28.4c0,3.9-1.3,7.8-3.8,11.7c0,0,0,0,0,0.1C286.8,138.4,275.8,146.6,260.4,153.5L260.4,153.5z M153.8,172.8
		c-83.7,0-142.1-28.8-142.1-54.7c0.1-9.3,7.9-19.4,22.3-28.3c-2.7,4.7-4.2,9.9-4.2,15.4c0,16.5,13.7,31.3,38.7,41.7
		c22.9,9.6,53.3,14.9,85.4,14.9c20,0,39.5-2.1,57-6v38.8c0,1.9,0.2,3.8,0.5,5.5c-18.1,3.3-37.4,4.9-57.5,4.9
		C83.3,205,30.8,184.5,16,162.6c-0.2-0.5-0.5-0.9-0.8-1.3c-2.2-3.7-3.3-7.3-3.3-11c0-1.1,0.1-2.1,0.3-3.2
		c8.1,8.2,19.7,15.6,34.5,21.9c28.7,12,66.8,18.6,107.2,18.6c12.3,0,24.6-0.6,36.4-1.9c3.6-0.4,6.2-4,5.8-8
		c-0.3-3.9-3.2-6.7-6.5-6.7c-0.2,0-0.3,0-0.5,0C177.6,172.2,165.8,172.8,153.8,172.8L153.8,172.8z M260.4,185.6v-16.4
		c15.2-6.3,27.1-13.8,35.3-22.1c0.2,1.1,0.3,2.1,0.3,3.2c0,3.6-1.1,7.3-3.3,10.9c-0.4,0.5-0.7,1-1,1.5
		C286.1,170.9,275.3,178.9,260.4,185.6L260.4,185.6z M235.5,222.8c11.5,0,21.1-8.9,23.9-21c15.6-6.3,27.8-14,36.1-22.5
		c0.2,1,0.3,2,0.3,3c0.2,25.9-58.2,54.8-141.9,54.8S11.8,208.3,11.8,182.4c0-1,0.1-2.1,0.3-3.1c8.1,8.3,19.7,15.7,34.5,21.9
		c28.7,12,66.8,18.6,107.2,18.6c22.3,0,43.7-2,63.7-5.9C222,219.4,228.4,222.8,235.5,222.8L235.5,222.8z"/>
</g>
</svg>
